<?xml version="1.0" encoding="UTF-8" standalone="no"?>
<svg
   xmlns:dc="http://purl.org/dc/elements/1.1/"
   xmlns:cc="http://creativecommons.org/ns#"
   xmlns:rdf="http://www.w3.org/1999/02/22-rdf-syntax-ns#"
   xmlns:svg="http://www.w3.org/2000/svg"
   xmlns="http://www.w3.org/2000/svg"
   xmlns:xlink="http://www.w3.org/1999/xlink"
   xmlns:sodipodi="http://sodipodi.sourceforge.net/DTD/sodipodi-0.dtd"
   xmlns:inkscape="http://www.inkscape.org/namespaces/inkscape"
   width="595.275591pt"
   height="595.275591pt"
   viewBox="0 0 595.275591 595.275591"
   version="1.2"
   id="svg3834"
   inkscape:version="0.47pre4 r22446"
   sodipodi:docname="browser-mode.svg"
   inkscape:export-filename="/home/paolo/workspace/gthumb/data/icons/48x48/actions/browser-mode.png"
   inkscape:export-xdpi="6.453649"
   inkscape:export-ydpi="6.453649">
  <metadata
     id="metadata3869">
    <rdf:RDF>
      <cc:Work
         rdf:about="">
        <dc:format>image/svg+xml</dc:format>
        <dc:type
           rdf:resource="http://purl.org/dc/dcmitype/StillImage" />
        <dc:title></dc:title>
      </cc:Work>
    </rdf:RDF>
  </metadata>
  <sodipodi:namedview
     pagecolor="#ffffff"
     bordercolor="#666666"
     borderopacity="1"
     objecttolerance="10"
     gridtolerance="10"
     guidetolerance="10"
     inkscape:pageopacity="0"
     inkscape:pageshadow="2"
     inkscape:window-width="1280"
     inkscape:window-height="951"
     id="namedview3867"
     showgrid="false"
     inkscape:zoom="0.45994116"
     inkscape:cx="247.92473"
     inkscape:cy="368.93447"
     inkscape:window-x="0"
     inkscape:window-y="25"
     inkscape:window-maximized="1"
     inkscape:current-layer="svg3834"
     showguides="true"
     inkscape:guide-bbox="true" />
  <defs
     id="defs3836">
    <linearGradient
       id="linearGradient3767">
      <stop
         style="stop-color:#2e3436;stop-opacity:1;"
         offset="0"
         id="stop3769" />
      <stop
         id="stop3775"
         offset="0.20068403"
         style="stop-color:#2e3436;stop-opacity:0.49803922;" />
      <stop
         style="stop-color:#ffffff;stop-opacity:1;"
         offset="1"
         id="stop3771" />
    </linearGradient>
    <linearGradient
       id="linearGradient3748">
      <stop
         style="stop-color:#fcaf3e;stop-opacity:1;"
         offset="0"
         id="stop3750" />
      <stop
         style="stop-color:#fcaf3e;stop-opacity:0.19277108;"
         offset="1"
         id="stop3752" />
    </linearGradient>
    <linearGradient
       id="linearGradient3738">
      <stop
         style="stop-color:#c17d11;stop-opacity:1;"
         offset="0"
         id="stop3740" />
      <stop
         style="stop-color:#c6a111;stop-opacity:0.30722892;"
         offset="1"
         id="stop3742" />
    </linearGradient>
    <linearGradient
       id="linearGradient3706">
      <stop
         id="stop3708"
         offset="0"
         style="stop-color:#ffffff;stop-opacity:1;" />
      <stop
         id="stop3710"
         offset="1"
         style="stop-color:#73d216;stop-opacity:0;" />
    </linearGradient>
    <linearGradient
       inkscape:collect="always"
       id="linearGradient3686">
      <stop
         style="stop-color:#73d216;stop-opacity:1;"
         offset="0"
         id="stop3688" />
      <stop
         style="stop-color:#73d216;stop-opacity:0;"
         offset="1"
         id="stop3690" />
    </linearGradient>
    <linearGradient
       id="linearGradient3668">
      <stop
         style="stop-color:#eeefed;stop-opacity:1;"
         offset="0"
         id="stop3670" />
      <stop
         style="stop-color:#babdb6;stop-opacity:0;"
         offset="1"
         id="stop3672" />
    </linearGradient>
    <linearGradient
       inkscape:collect="always"
       id="linearGradient3642">
      <stop
         style="stop-color:#8f5902;stop-opacity:1;"
         offset="0"
         id="stop3644" />
      <stop
         style="stop-color:#8f5902;stop-opacity:0;"
         offset="1"
         id="stop3646" />
    </linearGradient>
    <linearGradient
       inkscape:collect="always"
       id="linearGradient3624">
      <stop
         style="stop-color:#4e9a06;stop-opacity:1;"
         offset="0"
         id="stop3626" />
      <stop
         style="stop-color:#4e9a06;stop-opacity:0;"
         offset="1"
         id="stop3628" />
    </linearGradient>
    <inkscape:perspective
       sodipodi:type="inkscape:persp3d"
       inkscape:vp_x="0 : 372.04724 : 1"
       inkscape:vp_y="0 : 1000 : 0"
       inkscape:vp_z="744.09448 : 372.04724 : 1"
       inkscape:persp3d-origin="372.04724 : 248.03149 : 1"
       id="perspective3871" />
    <clipPath
       id="clip1">
      <path
         d="M 18 46.640625 L 290 46.640625 L 290 250.640625 L 18 250.640625 Z M 18 46.640625 "
         id="path3839" />
    </clipPath>
    <clipPath
       id="clip2">
      <path
         d="M 304.628906 46.640625 L 576.628906 46.640625 L 576.628906 250.640625 L 304.628906 250.640625 Z M 304.628906 46.640625 "
         id="path3842" />
    </clipPath>
    <clipPath
       id="clip3">
      <path
         d="M 18 321.832031 L 290 321.832031 L 290 525.832031 L 18 525.832031 Z M 18 321.832031 "
         id="path3845" />
    </clipPath>
    <clipPath
       id="clip4">
      <path
         d="M 304.628906 321.832031 L 576.628906 321.832031 L 576.628906 525.832031 L 304.628906 525.832031 Z M 304.628906 321.832031 "
         id="path3848" />
    </clipPath>
    <inkscape:perspective
       id="perspective4393"
       inkscape:persp3d-origin="0.5 : 0.33333333 : 1"
       inkscape:vp_z="1 : 0.5 : 1"
       inkscape:vp_y="0 : 1000 : 0"
       inkscape:vp_x="0 : 0.5 : 1"
       sodipodi:type="inkscape:persp3d" />
    <inkscape:perspective
       id="perspective4393-2"
       inkscape:persp3d-origin="0.5 : 0.33333333 : 1"
       inkscape:vp_z="1 : 0.5 : 1"
       inkscape:vp_y="0 : 1000 : 0"
       inkscape:vp_x="0 : 0.5 : 1"
       sodipodi:type="inkscape:persp3d" />
    <inkscape:perspective
       id="perspective4393-5"
       inkscape:persp3d-origin="0.5 : 0.33333333 : 1"
       inkscape:vp_z="1 : 0.5 : 1"
       inkscape:vp_y="0 : 1000 : 0"
       inkscape:vp_x="0 : 0.5 : 1"
       sodipodi:type="inkscape:persp3d" />
    <linearGradient
       inkscape:collect="always"
       xlink:href="#linearGradient3668"
       id="linearGradient4035"
       gradientUnits="userSpaceOnUse"
       gradientTransform="matrix(0.80000001,0,0,0.80000001,0.61495412,-43.046788)"
       x1="79.945072"
       y1="206.52573"
       x2="308.14804"
       y2="206.52573" />
    <linearGradient
       inkscape:collect="always"
       xlink:href="#linearGradient3686"
       id="linearGradient4052"
       gradientUnits="userSpaceOnUse"
       gradientTransform="matrix(0.6427484,0,0,0.64069923,74.995359,41.395596)"
       x1="441.94789"
       y1="167.39029"
       x2="672.32506"
       y2="167.39029" />
    <linearGradient
       inkscape:collect="always"
       xlink:href="#linearGradient3738"
       id="linearGradient4054"
       gradientUnits="userSpaceOnUse"
       gradientTransform="matrix(0.6427484,0,0,0.64069923,74.995359,41.395596)"
       x1="670.40924"
       y1="237.37152"
       x2="592.52911"
       y2="222.15218" />
    <linearGradient
       inkscape:collect="always"
       xlink:href="#linearGradient3624"
       id="linearGradient4089"
       gradientUnits="userSpaceOnUse"
       x1="105.77523"
       y1="551.67856"
       x2="311.40933"
       y2="551.67856" />
    <linearGradient
       inkscape:collect="always"
       xlink:href="#linearGradient3624"
       id="linearGradient4091"
       gradientUnits="userSpaceOnUse"
       gradientTransform="matrix(-0.80000001,0,0,0.80000001,312.60853,0.61495417)"
       x1="105.77523"
       y1="551.67856"
       x2="311.40933"
       y2="551.67856" />
    <linearGradient
       inkscape:collect="always"
       xlink:href="#linearGradient3706"
       id="linearGradient4093"
       gradientUnits="userSpaceOnUse"
       gradientTransform="matrix(0.80000001,0,0,0.80000001,10.45422,29.517798)"
       x1="181.40242"
       y1="553.84308"
       x2="212.20123"
       y2="626.10016" />
    <linearGradient
       inkscape:collect="always"
       xlink:href="#linearGradient3642"
       id="linearGradient4095"
       gradientUnits="userSpaceOnUse"
       gradientTransform="matrix(0.80000001,0,0,0.80000001,0,14.7845)"
       x1="443.03499"
       y1="506.02055"
       x2="672.32506"
       y2="506.02055" />
    <radialGradient
       inkscape:collect="always"
       xlink:href="#linearGradient3748"
       id="radialGradient4097"
       gradientUnits="userSpaceOnUse"
       gradientTransform="matrix(1,0,0,0.42163556,0,343.04908)"
       cx="576.74308"
       cy="593.13653"
       fx="576.74308"
       fy="593.13653"
       r="67.395257" />
  </defs>
  <g
     id="g4065"
     transform="translate(-14.36271,13.994024)">
    <rect
       ry="46.736511"
       y="313.62662"
       x="48.80014"
       height="231.98761"
       width="231.61894"
       id="rect3880"
       style="fill:#eeeeec;fill-opacity:1;stroke:#2e3436;stroke-width:12.80000019;stroke-linejoin:round;stroke-miterlimit:4;stroke-opacity:1;stroke-dasharray:none" />
    <rect
       ry="0"
       y="370.37164"
       x="88.427544"
       height="114.18909"
       width="152.50204"
       id="rect3882"
       style="opacity:0.87037036;fill:none;stroke:#2e3436;stroke-width:12.80000019;stroke-linejoin:round;stroke-miterlimit:4;stroke-opacity:1;stroke-dasharray:none;stroke-dashoffset:0" />
    <g
       transform="matrix(0.77519972,0,0,0.77406301,43.689571,90.577125)"
       id="g3833">
      <rect
         style="opacity:0.87037036;fill:#73d216;fill-opacity:1;stroke:none"
         id="rect3610"
         width="233.18199"
         height="175.56593"
         x="77.727333"
         y="457.64481"
         transform="scale(0.80000001,0.80000001)" />
      <path
         style="fill:url(#linearGradient4089);fill-opacity:1;stroke:none"
         d="m 123.06969,458.95704 c 0,0 6.46795,62.04171 20.60019,81.60943 14.13224,19.56772 21.44225,20.47767 34.48739,23.73895 13.04515,3.26129 131.66497,26.50859 131.66497,26.50859 l 1.08709,40.22253 -231.600491,1.53739 c -2.230703,0.32704 -3.638737,-80.15578 -1.401616,-173.61689 -5.435477,-3.26128 37.552797,-2.17419 45.162467,0 z"
         id="path3614"
         sodipodi:nodetypes="cssccccc"
         transform="scale(0.80000001,0.80000001)" />
      <path
         sodipodi:nodetypes="cssccccc"
         id="path3712"
         d="m 214.15278,367.78059 c 0,0 -5.17436,49.63336 -16.48016,65.28754 -11.30579,15.65418 -17.1538,16.38214 -27.58991,18.99116 -10.43612,2.60903 -105.331985,21.20687 -105.331985,21.20687 l -0.86967,32.17803 185.280405,1.22991 c 1.78456,0.26163 2.91099,-64.12463 1.12129,-138.89351 4.34838,-2.60903 -30.04224,-1.73936 -36.12997,0 z"
         style="fill:url(#linearGradient4091);fill-opacity:1;stroke:none" />
      <path
         sodipodi:nodetypes="cscccsc"
         style="fill:#428205;fill-opacity:1;stroke:none"
         d="m 99.622577,391.72579 c 0,0 -29.517808,-6.7645 -32.592578,-15.98881 -3.07477,-9.22431 -4.30468,-5.53459 -4.30468,-5.53459 l -1.2299,43.66174 c 0,0 1.258956,65.61879 2.242153,90.08235 82.597348,12.15651 81.306378,-33.72279 62.328028,-57.48978 -16.28711,-20.39669 -23.98321,-45.50661 -26.443023,-54.73091 z"
         id="path3720" />
      <path
         style="fill:url(#linearGradient4093);fill-opacity:1;stroke:#fbfbfb;stroke-width:0.80000001px;stroke-linecap:butt;stroke-linejoin:miter;stroke-opacity:1"
         d="m 126.68055,443.99688 61.49542,0 c 0,0 -23.36826,8.60936 -23.36827,27.67293 -1e-5,24.72086 19.67854,15.37386 28.2879,17.21872 8.60935,1.84487 -22.13835,12.29908 -46.73652,12.29908 -24.59816,0 -60.880457,-11.68413 -31.97761,-12.91403 28.90284,-1.22991 30.13275,5.53458 31.97761,-2.45982 1.84486,-7.9944 7.37945,-31.97761 -1.84486,-34.43743 -9.22431,-2.45981 -16.60376,-6.14954 -17.83367,-7.37945 z"
         id="path3694"
         sodipodi:nodetypes="ccssssssc" />
      <path
         style="fill:#428205;fill-opacity:1;stroke:none"
         d="m 235.21995,609.57327 c 0,0 69.95103,-11.53039 73.79449,-23.06078 3.84347,-11.53039 5.38085,-6.91823 5.38085,-6.91823 l -2.30608,53.80848 c 0,0 -34.59117,-19.98601 -49.96502,-19.21731 -15.37385,0.76869 -26.13555,-3.84347 -26.90424,-4.61216 z"
         id="path3716"
         transform="scale(0.80000001,0.80000001)" />
      <path
         id="path3718"
         d="m 109.46185,474.12964 c 0,0 -41.201942,-35.05239 -44.276712,-44.2767 -3.07477,-9.22431 -4.30468,-5.53459 -4.30468,-5.53459 l 0.61496,43.04679 c 0,0 4.919629,0.61495 17.218711,1.22991 12.29908,0.61495 25.828081,16.60376 30.747721,5.53459 z"
         style="fill:#73d216;fill-opacity:1;stroke:none"
         sodipodi:nodetypes="csccsc" />
      <path
         sodipodi:nodetypes="csccsc"
         style="fill:#73d216;fill-opacity:1;stroke:none"
         d="m 202.31991,440.92212 c 0,0 41.20194,-35.05239 44.27671,-44.2767 3.07477,-9.22431 4.30468,-5.53459 4.30468,-5.53459 l -0.61496,43.04679 c 0,0 -4.91963,0.61495 -17.21871,1.22991 -12.29908,0.61495 -25.82808,16.60376 -30.74772,5.53459 z"
         id="path3722" />
      <path
         id="path3724"
         d="m 144.51422,416.93891 c 0,0 41.20194,-35.05239 44.27671,-44.2767 3.07477,-9.22431 4.30468,-5.53459 4.30468,-5.53459 l -0.61496,43.04679 c 0,0 -4.91963,0.61495 -17.21871,1.22991 -12.29908,0.61495 -25.82808,16.60376 -30.74772,5.53459 z"
         style="fill:#6fca15;fill-opacity:1;stroke:none"
         sodipodi:nodetypes="csccsc" />
      <path
         sodipodi:nodetypes="csccsc"
         style="fill:#a4e961;fill-opacity:1;stroke:none"
         d="m 128.52542,395.11006 c 0,0 -21.90484,-21.19238 -23.53953,-26.76932 -1.63468,-5.57694 -2.28856,-3.34617 -2.28856,-3.34617 l 0.32694,26.02573 c 0,0 2.6155,0.37179 9.15425,0.74359 6.53876,0.3718 13.73139,10.03849 16.3469,3.34617 z"
         id="path3726" />
      <path
         sodipodi:nodetypes="csccsc"
         style="fill:#6fca15;fill-opacity:1;stroke:none"
         d="m 138.97965,429.10846 c 0,0 -22.94793,-19.60837 -24.66046,-24.76847 -1.71253,-5.1601 -2.39754,-3.09606 -2.39754,-3.09606 l 0.34251,24.08046 c 0,0 2.74005,0.344 9.59017,0.68801 6.85012,0.34401 14.38526,9.28818 17.12532,3.09606 z"
         id="path3728" />
    </g>
  </g>
  <g
     id="g4056"
     transform="translate(20.074725,16.753663)">
    <rect
       style="fill:#eeeeec;fill-opacity:1;stroke:#2e3436;stroke-width:12.80000019;stroke-linejoin:round;stroke-miterlimit:4;stroke-opacity:1;stroke-dasharray:none"
       id="rect3874"
       width="231.61894"
       height="231.98761"
       x="14.362706"
       y="20.143579"
       ry="46.736511" />
    <rect
       style="opacity:0.87037036;fill:none;stroke:#2e3436;stroke-width:12.80000019;stroke-linejoin:round;stroke-miterlimit:4;stroke-opacity:1;stroke-dasharray:none;stroke-dashoffset:0"
       id="rect3876"
       width="152.50204"
       height="114.18909"
       x="53.990116"
       y="76.888634"
       ry="0" />
    <g
       transform="matrix(0.80917226,0,0,0.79834759,4.1573855,12.398825)"
       id="g3828">
      <g
         id="g3863">
        <rect
           y="82.601318"
           x="64.356056"
           height="137.84372"
           width="182.63206"
           id="rect2834"
           style="opacity:0.84074073;fill:#729fcf;fill-opacity:1;stroke:none" />
        <path
           id="path3650"
           d="M 246.73339,93.909309 130.19675,114.78154 c 0,0 -48.701883,1.73936 -53.050267,-7.82709 -4.348382,-9.566437 -12.17547,-9.566437 -12.17547,-9.566437 l 0,45.223177 c 0,0 76.531527,-23.48126 104.361177,-12.17547 27.82965,11.3058 77.4012,20.00256 77.4012,20.00256 l 0,-56.528971 z"
           style="fill:url(#linearGradient4035);fill-opacity:1;stroke:none" />
        <path
           transform="scale(0.80000001,0.80000001)"
           id="path3730"
           d="m 107.61697,139.90206 c 0,0 18.44862,54.57718 0.76869,69.95103 -17.679928,15.37386 -26.90424,17.67993 -26.90424,17.67993 l 0,20.75471 c 0,0 106.07959,7.68692 162.19415,-0.7687 56.11456,-8.45562 64.57018,-9.993 64.57018,-9.993 l -0.76869,-35.35986 c 0,0 -70.71973,-6.14954 -74.56319,-32.28509 -3.84346,-26.13555 -11.53039,38.43463 -42.27809,41.5094 -30.74771,3.07477 -45.35287,9.993 -49.19633,-11.53039 -3.84347,-21.52339 -6.91824,-50.73371 -8.45562,-54.57718 -1.53739,-3.84346 -25.36686,-3.84346 -25.36686,-5.38085 z"
           style="fill:#418005;fill-opacity:1;stroke:none" />
      </g>
    </g>
  </g>
  <g
     id="g4081"
     transform="translate(13.132812,13.994024)">
    <rect
       style="fill:#eeeeec;fill-opacity:1;stroke:#2e3436;stroke-width:12.80000019;stroke-linejoin:round;stroke-miterlimit:4;stroke-opacity:1;stroke-dasharray:none"
       id="rect3886"
       width="231.61894"
       height="231.98761"
       x="317.31631"
       y="313.62662"
       ry="46.736511" />
    <rect
       style="opacity:0.87037036;fill:none;stroke:#2e3436;stroke-width:12.80000019;stroke-linejoin:round;stroke-miterlimit:4;stroke-opacity:1;stroke-dasharray:none;stroke-dashoffset:0"
       id="rect3888"
       width="152.50204"
       height="114.18909"
       x="356.94373"
       y="370.37167"
       ry="0" />
    <g
       transform="matrix(0.80917236,0,0,0.79583708,71.052802,81.439558)"
       id="g3846">
      <rect
         style="opacity:0.87037036;fill:#f57900;fill-opacity:1;stroke:none"
         id="rect3612"
         width="227.74652"
         height="172.30464"
         x="443.535"
         y="457.64481"
         transform="scale(0.80000001,0.80000001)" />
      <path
         style="fill:url(#linearGradient4095);fill-opacity:1;stroke:none"
         d="m 355.69768,474.39056 c 0,0 59.47811,-20.17957 90.44635,-21.74191 30.09517,-1.5183 89.57667,12.17547 89.57667,12.17547 l 1.73935,-81.74958 c 0,0 -50.44123,47.8322 -95.6644,42.61414 -45.22318,-5.21806 -71.31347,-60.00767 -71.31347,-60.00767 l -14.7845,0.86967 0,107.83988 z"
         id="path3632"
         sodipodi:nodetypes="csccsccc" />
      <path
         style="fill:url(#radialGradient4097);fill-opacity:1;stroke:none"
         d="m 509.84782,566.89791 c 0,0 89.14184,-5.43548 98.9257,3.26128 9.78386,8.69677 56.52896,47.83221 22.829,46.74511 -33.69996,-1.08709 -106.53536,13.04515 -111.97084,-5.43548 -5.43548,-18.48062 -9.78386,-44.57091 -9.78386,-44.57091 z"
         id="path3746"
         transform="scale(0.80000001,0.80000001)" />
    </g>
  </g>
  <g
     id="g4045"
     transform="translate(13.132812,-10.304319)">
    <rect
       ry="46.736511"
       y="47.201561"
       x="317.31631"
       height="231.98761"
       width="231.61894"
       id="rect3873-4"
       style="fill:#eeeeec;fill-opacity:1;stroke:#2e3436;stroke-width:12.80000019;stroke-linejoin:round;stroke-miterlimit:4;stroke-opacity:1;stroke-dasharray:none" />
    <rect
       ry="0"
       y="103.9466"
       x="356.94373"
       height="114.18909"
       width="152.50204"
       id="rect3765"
       style="opacity:0.87037036;fill:none;stroke:#2e3436;stroke-width:12.80000019;stroke-linejoin:round;stroke-miterlimit:4;stroke-opacity:1;stroke-dasharray:none;stroke-dashoffset:0" />
    <rect
       y="105.80759"
       x="360.07675"
       height="110.0472"
       width="147.08244"
       id="rect3608"
       style="opacity:0.87037036;fill:#fce94f;fill-opacity:1;stroke:none" />
    <path
       id="path3676"
       d="m 397.80813,105.80759 c 0,0 43.3212,16.01953 36.3339,41.09357 -6.98729,25.07405 -74.76399,6.96501 -74.76399,6.96501 l 0,37.61107 c 0,0 63.58433,-32.73556 85.24493,-22.28803 21.6606,10.44751 61.48814,18.10903 61.48814,18.10903 l 0.69873,-43.87958 c 0,0 -48.91102,-1.39301 -55.89831,-16.01953 -6.98729,-14.62653 -14.67331,-21.59154 -14.67331,-21.59154 l -38.43009,0 z"
       style="fill:url(#linearGradient4052);fill-opacity:1;stroke:none" />
    <path
       sodipodi:nodetypes="cssccc"
       id="path3736"
       d="m 439.62342,215.74087 c 0,0 -9.83641,-25.83059 -4.94075,-37.43006 5.74794,-13.61884 29.26369,-22.26221 43.95822,-20.32654 l 27.18872,3.58151 0.0702,53.95659 -66.27641,0.2185 z"
       style="fill:url(#linearGradient4054);fill-opacity:1;stroke:none" />
  </g>
  <rect
     style="opacity:0.1;fill:#000000;fill-opacity:1;stroke:#2e3436;stroke-width:16;stroke-linejoin:round;stroke-miterlimit:4;stroke-opacity:1;stroke-dasharray:none;stroke-dashoffset:0"
     id="rect2905"
     width="186.98044"
     height="136.97404"
     x="97.8386"
     y="120.10162"
     transform="scale(0.80000001,0.80000001)" />
  <rect
     y="384.81387"
     x="370.48218"
     height="109.57924"
     width="149.58435"
     id="rect3679"
     style="opacity:0.1;fill:#000000;fill-opacity:1;stroke:#2e3436;stroke-width:12.80000019000000044;stroke-linejoin:round;stroke-miterlimit:4;stroke-opacity:1;stroke-dasharray:none;stroke-dashoffset:0" />
  <rect
     style="opacity:0.1;fill:#000000;fill-opacity:1;stroke:#2e3436;stroke-width:12.80000019000000044;stroke-linejoin:round;stroke-miterlimit:4;stroke-opacity:1;stroke-dasharray:none;stroke-dashoffset:0"
     id="rect3681"
     width="149.58435"
     height="109.57924"
     x="74.792175"
     y="384.81387" />
  <rect
     y="92.602592"
     x="370.48218"
     height="109.57924"
     width="149.58435"
     id="rect3683"
     style="opacity:0.1;fill:#000000;fill-opacity:1;stroke:#2e3436;stroke-width:12.80000019000000044;stroke-linejoin:round;stroke-miterlimit:4;stroke-opacity:1;stroke-dasharray:none;stroke-dashoffset:0" />
</svg>
