<?xml version="1.0" encoding="UTF-8" standalone="no"?>
<!-- Created with Inkscape (http://www.inkscape.org/) -->

<svg
   xmlns:dc="http://purl.org/dc/elements/1.1/"
   xmlns:cc="http://creativecommons.org/ns#"
   xmlns:rdf="http://www.w3.org/1999/02/22-rdf-syntax-ns#"
   xmlns:svg="http://www.w3.org/2000/svg"
   xmlns="http://www.w3.org/2000/svg"
   xmlns:xlink="http://www.w3.org/1999/xlink"
   xmlns:sodipodi="http://sodipodi.sourceforge.net/DTD/sodipodi-0.dtd"
   xmlns:inkscape="http://www.inkscape.org/namespaces/inkscape"
   width="506.37949"
   height="490.60568"
   id="svg2"
   version="1.1"
   inkscape:version="0.47pre4 r22446"
   sodipodi:docname="palette.svg"
   inkscape:export-filename="/home/paolo/Immagini/gthumb/icons/palette-22.png"
   inkscape:export-xdpi="3.8523808"
   inkscape:export-ydpi="3.8523808">
  <defs
     id="defs4">
    <linearGradient
       id="linearGradient3984">
      <stop
         style="stop-color:#f4deba;stop-opacity:1;"
         offset="0"
         id="stop3986" />
      <stop
         style="stop-color:#de9625;stop-opacity:0;"
         offset="1"
         id="stop3988" />
    </linearGradient>
    <linearGradient
       id="linearGradient3946">
      <stop
         id="stop3948"
         offset="0"
         style="stop-color:#000000;stop-opacity:0.74698794;" />
      <stop
         id="stop3950"
         offset="1"
         style="stop-color:#000000;stop-opacity:0.02409638;" />
    </linearGradient>
    <linearGradient
       id="linearGradient3830">
      <stop
         style="stop-color:#000000;stop-opacity:0.74698794;"
         offset="0"
         id="stop3832" />
      <stop
         style="stop-color:#000000;stop-opacity:0.02409638;"
         offset="1"
         id="stop3834" />
    </linearGradient>
    <linearGradient
       inkscape:collect="always"
       id="linearGradient3822">
      <stop
         style="stop-color:#cc0000;stop-opacity:0"
         offset="0"
         id="stop3824" />
      <stop
         style="stop-color:#cc0000;stop-opacity:0;"
         offset="1"
         id="stop3826" />
    </linearGradient>
    <linearGradient
       id="linearGradient3806">
      <stop
         style="stop-color:#000000;stop-opacity:1;"
         offset="0"
         id="stop3808" />
      <stop
         style="stop-color:#000000;stop-opacity:0"
         offset="1"
         id="stop3810" />
    </linearGradient>
    <linearGradient
       id="linearGradient3702">
      <stop
         style="stop-color:#ffffff;stop-opacity:1;"
         offset="0"
         id="stop3704" />
      <stop
         style="stop-color:#ffffff;stop-opacity:0;"
         offset="1"
         id="stop3706" />
    </linearGradient>
    <inkscape:perspective
       sodipodi:type="inkscape:persp3d"
       inkscape:vp_x="0 : 526.18109 : 1"
       inkscape:vp_y="0 : 1000 : 0"
       inkscape:vp_z="744.09448 : 526.18109 : 1"
       inkscape:persp3d-origin="372.04724 : 350.78739 : 1"
       id="perspective10" />
    <inkscape:perspective
       id="perspective3626"
       inkscape:persp3d-origin="0.5 : 0.33333333 : 1"
       inkscape:vp_z="1 : 0.5 : 1"
       inkscape:vp_y="0 : 1000 : 0"
       inkscape:vp_x="0 : 0.5 : 1"
       sodipodi:type="inkscape:persp3d" />
    <inkscape:perspective
       id="perspective3688"
       inkscape:persp3d-origin="0.5 : 0.33333333 : 1"
       inkscape:vp_z="1 : 0.5 : 1"
       inkscape:vp_y="0 : 1000 : 0"
       inkscape:vp_x="0 : 0.5 : 1"
       sodipodi:type="inkscape:persp3d" />
    <linearGradient
       inkscape:collect="always"
       xlink:href="#linearGradient3702"
       id="linearGradient3708"
       x1="424.17636"
       y1="727.35718"
       x2="441.03659"
       y2="417.4653"
       gradientUnits="userSpaceOnUse"
       gradientTransform="matrix(0.96595983,0,0,0.96316005,15.449188,22.484251)" />
    <inkscape:perspective
       id="perspective3730"
       inkscape:persp3d-origin="0.5 : 0.33333333 : 1"
       inkscape:vp_z="1 : 0.5 : 1"
       inkscape:vp_y="0 : 1000 : 0"
       inkscape:vp_x="0 : 0.5 : 1"
       sodipodi:type="inkscape:persp3d" />
    <inkscape:perspective
       id="perspective3730-2"
       inkscape:persp3d-origin="0.5 : 0.33333333 : 1"
       inkscape:vp_z="1 : 0.5 : 1"
       inkscape:vp_y="0 : 1000 : 0"
       inkscape:vp_x="0 : 0.5 : 1"
       sodipodi:type="inkscape:persp3d" />
    <inkscape:perspective
       id="perspective3730-26"
       inkscape:persp3d-origin="0.5 : 0.33333333 : 1"
       inkscape:vp_z="1 : 0.5 : 1"
       inkscape:vp_y="0 : 1000 : 0"
       inkscape:vp_x="0 : 0.5 : 1"
       sodipodi:type="inkscape:persp3d" />
    <inkscape:perspective
       id="perspective3770"
       inkscape:persp3d-origin="0.5 : 0.33333333 : 1"
       inkscape:vp_z="1 : 0.5 : 1"
       inkscape:vp_y="0 : 1000 : 0"
       inkscape:vp_x="0 : 0.5 : 1"
       sodipodi:type="inkscape:persp3d" />
    <inkscape:perspective
       id="perspective3792"
       inkscape:persp3d-origin="0.5 : 0.33333333 : 1"
       inkscape:vp_z="1 : 0.5 : 1"
       inkscape:vp_y="0 : 1000 : 0"
       inkscape:vp_x="0 : 0.5 : 1"
       sodipodi:type="inkscape:persp3d" />
    <linearGradient
       inkscape:collect="always"
       xlink:href="#linearGradient3822"
       id="linearGradient3828"
       x1="340.4436"
       y1="634.2749"
       x2="340.4436"
       y2="634.2749"
       gradientUnits="userSpaceOnUse" />
    <linearGradient
       inkscape:collect="always"
       xlink:href="#linearGradient3830"
       id="linearGradient3836"
       x1="340.4436"
       y1="634.2749"
       x2="268.5564"
       y2="590.44946"
       gradientUnits="userSpaceOnUse" />
    <inkscape:perspective
       id="perspective3846"
       inkscape:persp3d-origin="0.5 : 0.33333333 : 1"
       inkscape:vp_z="1 : 0.5 : 1"
       inkscape:vp_y="0 : 1000 : 0"
       inkscape:vp_x="0 : 0.5 : 1"
       sodipodi:type="inkscape:persp3d" />
    <linearGradient
       inkscape:collect="always"
       xlink:href="#linearGradient3822-2"
       id="linearGradient3828-6"
       x1="340.4436"
       y1="634.2749"
       x2="340.4436"
       y2="634.2749"
       gradientUnits="userSpaceOnUse" />
    <linearGradient
       inkscape:collect="always"
       id="linearGradient3822-2">
      <stop
         style="stop-color:#cc0000;stop-opacity:0"
         offset="0"
         id="stop3824-6" />
      <stop
         style="stop-color:#cc0000;stop-opacity:0;"
         offset="1"
         id="stop3826-2" />
    </linearGradient>
    <linearGradient
       inkscape:collect="always"
       xlink:href="#linearGradient3830-9"
       id="linearGradient3836-3"
       x1="340.4436"
       y1="634.2749"
       x2="268.5564"
       y2="590.44946"
       gradientUnits="userSpaceOnUse" />
    <linearGradient
       id="linearGradient3830-9">
      <stop
         style="stop-color:#000000;stop-opacity:0.74698794;"
         offset="0"
         id="stop3832-7" />
      <stop
         style="stop-color:#000000;stop-opacity:0.02409638;"
         offset="1"
         id="stop3834-5" />
    </linearGradient>
    <linearGradient
       y2="634.2749"
       x2="340.4436"
       y1="634.2749"
       x1="340.4436"
       gradientUnits="userSpaceOnUse"
       id="linearGradient3859"
       xlink:href="#linearGradient3822-2"
       inkscape:collect="always" />
    <linearGradient
       y2="590.44946"
       x2="268.5564"
       y1="634.2749"
       x1="340.4436"
       gradientUnits="userSpaceOnUse"
       id="linearGradient3861"
       xlink:href="#linearGradient3830-9"
       inkscape:collect="always" />
    <inkscape:perspective
       id="perspective3900"
       inkscape:persp3d-origin="0.5 : 0.33333333 : 1"
       inkscape:vp_z="1 : 0.5 : 1"
       inkscape:vp_y="0 : 1000 : 0"
       inkscape:vp_x="0 : 0.5 : 1"
       sodipodi:type="inkscape:persp3d" />
    <linearGradient
       y2="634.2749"
       x2="340.4436"
       y1="634.2749"
       x1="340.4436"
       gradientUnits="userSpaceOnUse"
       id="linearGradient3859-2"
       xlink:href="#linearGradient3822-2-3"
       inkscape:collect="always" />
    <linearGradient
       inkscape:collect="always"
       id="linearGradient3822-2-3">
      <stop
         style="stop-color:#cc0000;stop-opacity:0"
         offset="0"
         id="stop3824-6-8" />
      <stop
         style="stop-color:#cc0000;stop-opacity:0;"
         offset="1"
         id="stop3826-2-7" />
    </linearGradient>
    <linearGradient
       y2="590.44946"
       x2="268.5564"
       y1="634.2749"
       x1="340.4436"
       gradientUnits="userSpaceOnUse"
       id="linearGradient3861-2"
       xlink:href="#linearGradient3830-9-1"
       inkscape:collect="always" />
    <linearGradient
       id="linearGradient3830-9-1">
      <stop
         style="stop-color:#000000;stop-opacity:0.74698794;"
         offset="0"
         id="stop3832-7-9" />
      <stop
         style="stop-color:#000000;stop-opacity:0.02409638;"
         offset="1"
         id="stop3834-5-9" />
    </linearGradient>
    <linearGradient
       y2="570.38226"
       x2="337.07043"
       y1="570.38226"
       x1="337.07043"
       gradientUnits="userSpaceOnUse"
       id="linearGradient3913"
       xlink:href="#linearGradient3822-2-3"
       inkscape:collect="always" />
    <linearGradient
       y2="654.3421"
       x2="271.92957"
       y1="570.38226"
       x1="337.07043"
       gradientUnits="userSpaceOnUse"
       id="linearGradient3915"
       xlink:href="#linearGradient3946"
       inkscape:collect="always" />
    <inkscape:perspective
       id="perspective3960"
       inkscape:persp3d-origin="0.5 : 0.33333333 : 1"
       inkscape:vp_z="1 : 0.5 : 1"
       inkscape:vp_y="0 : 1000 : 0"
       inkscape:vp_x="0 : 0.5 : 1"
       sodipodi:type="inkscape:persp3d" />
    <filter
       inkscape:collect="always"
       id="filter3978"
       color-interpolation-filters="sRGB">
      <feGaussianBlur
         inkscape:collect="always"
         stdDeviation="10.121048"
         id="feGaussianBlur3980" />
    </filter>
    <radialGradient
       inkscape:collect="always"
       xlink:href="#linearGradient3984"
       id="radialGradient3990"
       cx="352"
       cy="501.86218"
       fx="352"
       fy="501.86218"
       r="10"
       gradientTransform="matrix(1.8,0.2,-0.1159531,1.0435779,-223.40752,-92.270111)"
       gradientUnits="userSpaceOnUse" />
    <inkscape:perspective
       id="perspective4003"
       inkscape:persp3d-origin="0.5 : 0.33333333 : 1"
       inkscape:vp_z="1 : 0.5 : 1"
       inkscape:vp_y="0 : 1000 : 0"
       inkscape:vp_x="0 : 0.5 : 1"
       sodipodi:type="inkscape:persp3d" />
    <inkscape:perspective
       id="perspective4029"
       inkscape:persp3d-origin="0.5 : 0.33333333 : 1"
       inkscape:vp_z="1 : 0.5 : 1"
       inkscape:vp_y="0 : 1000 : 0"
       inkscape:vp_x="0 : 0.5 : 1"
       sodipodi:type="inkscape:persp3d" />
    <filter
       inkscape:collect="always"
       id="filter4079"
       x="-0.27234054"
       width="1.5446811"
       y="-0.52708364"
       height="2.0541673"
       color-interpolation-filters="sRGB">
      <feGaussianBlur
         inkscape:collect="always"
         stdDeviation="9.5673716"
         id="feGaussianBlur4081" />
    </filter>
  </defs>
  <sodipodi:namedview
     id="base"
     pagecolor="#ffffff"
     bordercolor="#666666"
     borderopacity="1.0"
     inkscape:pageopacity="0.0"
     inkscape:pageshadow="2"
     inkscape:zoom="1"
     inkscape:cx="270.06608"
     inkscape:cy="248.21028"
     inkscape:document-units="px"
     inkscape:current-layer="layer2"
     showgrid="false"
     inkscape:window-width="1280"
     inkscape:window-height="951"
     inkscape:window-x="0"
     inkscape:window-y="25"
     inkscape:window-maximized="1"
     inkscape:snap-page="false"
     borderlayer="false" />
  <metadata
     id="metadata7">
    <rdf:RDF>
      <cc:Work
         rdf:about="">
        <dc:format>image/svg+xml</dc:format>
        <dc:type
           rdf:resource="http://purl.org/dc/dcmitype/StillImage" />
        <dc:title />
      </cc:Work>
    </rdf:RDF>
  </metadata>
  <g
     inkscape:label="Livello 1"
     inkscape:groupmode="layer"
     id="layer1"
     transform="translate(-174.55695,-383.0422)">
    <path
       style="opacity:0.39259261;fill:#000000;fill-opacity:1;stroke:none;filter:url(#filter3978)"
       d="m 467.45216,411.37716 c -1.30465,0.0143 -2.61161,0.0491 -3.90625,0.0937 -119.22341,4.11116 -200,152.125 -205,172.125 -7.01567,28.0627 -20.5927,82.27834 -16.40625,123.59375 3.57142,31.42857 29.26339,96.41517 61.40625,97.84375 32.14286,1.42857 13.58928,-86.41518 72.875,-102.84375 55.4834,-15.37491 -20,142.83036 15,145.6875 35,2.85715 84.27232,9.2991 162.84375,-67.84375 C 595.14791,739.8935 660.98208,677.81852 656.42091,584.31466 650.79591,469.70529 549.645,410.47507 467.45216,411.37716 z m 8.65625,286.65625 c 13.57563,-0.29097 28.74314,2.55005 33.15625,19.15625 4.0037,15.06562 -8.164,33.68064 -30.71875,39.28125 -20.92512,5.19595 -43.56696,2.13392 -49.28125,-21.4375 -5.71428,-25 22.875,-35.00892 37.875,-36.4375 2.8125,-0.26786 5.83591,-0.49535 8.96875,-0.5625 z"
       id="path2818-9" />
    <path
       style="fill:#e9b96e;fill-opacity:1;stroke:#836d00;stroke-width:15;stroke-linecap:butt;stroke-linejoin:miter;stroke-miterlimit:4;stroke-opacity:1;stroke-dasharray:none"
       d="m 443.48906,390.55235 c -1.30465,0.0143 -2.61161,0.0491 -3.90625,0.0937 -119.22341,4.11116 -200,152.125 -205,172.125 -7.01567,28.0627 -20.5927,82.27834 -16.40625,123.59375 3.57142,31.42857 29.26339,96.41517 61.40625,97.84375 32.14286,1.42857 13.58928,-86.41518 72.875,-102.84375 55.4834,-15.37491 -20,142.83036 15,145.6875 35,2.85715 84.27232,9.2991 162.84375,-67.84375 40.88325,-40.13986 106.71742,-102.21484 102.15625,-195.7187 -5.625,-114.60937 -106.77591,-173.83959 -188.96875,-172.9375 z m 8.65625,286.65625 c 13.57563,-0.29097 28.74314,2.55005 33.15625,19.15625 4.0037,15.06562 -8.164,33.68064 -30.71875,39.28125 -20.92512,5.19595 -43.56696,2.13392 -49.28125,-21.4375 -5.71428,-25 22.875,-35.00892 37.875,-36.4375 2.8125,-0.26786 5.83591,-0.49535 8.96875,-0.5625 z"
       id="path2818" />
    <path
       style="fill:none;stroke:url(#linearGradient3708);stroke-width:14.46838379;stroke-linecap:butt;stroke-linejoin:miter;stroke-miterlimit:4;stroke-opacity:0.44615383;stroke-dasharray:none"
       d="m 450.62691,406.59574 c -1.21334,0.0132 -9.32855,-0.64242 -10.53259,-0.601 -110.87922,3.81353 -187.38238,143.1756 -192.03244,161.72766 -6.52467,26.03106 -19.15146,76.32168 -15.25802,114.646 3.32147,29.15325 25.38341,88.04066 50.20886,88.69628 5.65639,0.14938 8.41657,-97.98439 76.05429,-105.22117 66.55196,-7.1206 -2.07341,149.0238 17.621,148.03724 33.37145,-1.67168 73.32353,2.56496 146.39592,-68.993 C 561.10586,707.65381 622.33245,655.1236 618.09049,568.3891 612.85917,462.07706 527.06725,405.75897 450.62691,406.59574 z m 8.27137,254.01646 c 12.6255,-0.2699 37.62219,7.8692 41.72644,31.35439 2.48971,14.24655 -1.50039,52.95493 -46.58021,58.55665 -35.73162,4.44009 -58.899,-14.67963 -64.21335,-36.54456 -5.31435,-23.19008 28.49393,-51.84173 49.51517,-52.15674 2.62713,-0.0394 16.63837,-1.14744 19.55195,-1.20974 z"
       id="path2818-4"
       sodipodi:nodetypes="csscsssscccsscsc" />
    <path
       sodipodi:type="arc"
       style="fill:#204a87;fill-opacity:1;stroke:none"
       id="path3720"
       sodipodi:cx="304.5"
       sodipodi:cy="612.36218"
       sodipodi:rx="46.5"
       sodipodi:ry="29"
       d="m 351,612.36218 c 0,16.01626 -20.81876,29 -46.5,29 -25.68124,0 -46.5,-12.98374 -46.5,-29 0,-16.01626 20.81876,-29 46.5,-29 25.68124,0 46.5,12.98374 46.5,29 z"
       transform="matrix(0.89538199,-0.04398891,0.26102296,1.1630351,-129.98441,-96.94189)" />
    <path
       sodipodi:type="arc"
       style="fill:#cc0000;fill-opacity:1;stroke:none"
       id="path3720-8"
       sodipodi:cx="304.5"
       sodipodi:cy="612.36218"
       sodipodi:rx="46.5"
       sodipodi:ry="29"
       d="m 351,612.36218 c 0,16.01626 -20.81876,29 -46.5,29 -25.68124,0 -46.5,-12.98374 -46.5,-29 0,-16.01626 20.81876,-29 46.5,-29 25.68124,0 46.5,12.98374 46.5,29 z"
       transform="matrix(0.51289471,0.74112566,-0.84130407,0.77946245,711.50636,-188.12393)" />
    <path
       sodipodi:type="arc"
       style="fill:#eeeeec;fill-opacity:1;stroke:none"
       id="path3720-5"
       sodipodi:cx="304.5"
       sodipodi:cy="612.36218"
       sodipodi:rx="46.5"
       sodipodi:ry="29"
       d="m 351,612.36218 c 0,16.01626 -20.81876,29 -46.5,29 -25.68124,0 -46.5,-12.98374 -46.5,-29 0,-16.01626 20.81876,-29 46.5,-29 25.68124,0 46.5,12.98374 46.5,29 z"
       transform="matrix(0.89639891,-0.01062647,0.21754629,1.1719459,34.829403,-251.05743)" />
    <path
       sodipodi:type="arc"
       style="fill:#fce94f;fill-opacity:1;stroke:none"
       id="path3720-4"
       sodipodi:cx="304.5"
       sodipodi:cy="612.36218"
       sodipodi:rx="46.5"
       sodipodi:ry="29"
       d="m 351,612.36218 c 0,16.01626 -20.81876,29 -46.5,29 -25.68124,0 -46.5,-12.98374 -46.5,-29 0,-16.01626 20.81876,-29 46.5,-29 25.68124,0 46.5,12.98374 46.5,29 z"
       transform="matrix(-0.11736629,0.88874579,-1.1909943,0.04812628,1303.0579,206.26837)" />
    <path
       sodipodi:type="arc"
       style="fill:#2e3436;fill-opacity:1;stroke:none"
       id="path3720-4-6"
       sodipodi:cx="304.5"
       sodipodi:cy="612.36218"
       sodipodi:rx="46.5"
       sodipodi:ry="29"
       d="m 351,612.36218 c 0,16.01626 -20.81876,29 -46.5,29 -25.68124,0 -46.5,-12.98374 -46.5,-29 0,-16.01626 20.81876,-29 46.5,-29 25.68124,0 46.5,12.98374 46.5,29 z"
       transform="matrix(-0.76100344,0.47383298,-0.79363048,-0.88934483,1275.7148,1002.6812)" />
    <path
       sodipodi:type="arc"
       style="fill:url(#linearGradient3828);fill-opacity:1;stroke:url(#linearGradient3836);stroke-width:4.94276237;stroke-miterlimit:4;stroke-opacity:1;stroke-dasharray:none"
       id="path3720-8-6"
       sodipodi:cx="304.5"
       sodipodi:cy="612.36218"
       sodipodi:rx="46.5"
       sodipodi:ry="29"
       d="m 351,612.36218 c 0,16.01626 -20.81876,29 -46.5,29 -25.68124,0 -46.5,-12.98374 -46.5,-29 0,-16.01626 20.81876,-29 46.5,-29 25.68124,0 46.5,12.98374 46.5,29 z"
       transform="matrix(0.51289471,0.74112566,-0.84130407,0.77946245,713.00636,-188.62391)" />
    <path
       sodipodi:type="arc"
       style="fill:url(#linearGradient3859);fill-opacity:1;stroke:url(#linearGradient3861);stroke-width:4.94276237;stroke-miterlimit:4;stroke-opacity:1;stroke-dasharray:none"
       id="path3720-8-6-5"
       sodipodi:cx="304.5"
       sodipodi:cy="612.36218"
       sodipodi:rx="46.5"
       sodipodi:ry="29"
       d="m 351,612.36218 c 0,16.01626 -20.81876,29 -46.5,29 -25.68124,0 -46.5,-12.98374 -46.5,-29 0,-16.01626 20.81876,-29 46.5,-29 25.68124,0 46.5,12.98374 46.5,29 z"
       transform="matrix(0.65571898,0.57931823,-1.0755795,0.60928508,902.4778,-86.143366)" />
    <path
       sodipodi:type="arc"
       style="fill:url(#linearGradient3913);fill-opacity:1;stroke:url(#linearGradient3915);stroke-width:4.94276237;stroke-miterlimit:4;stroke-opacity:1;stroke-dasharray:none"
       id="path3720-8-6-5-3"
       sodipodi:cx="304.5"
       sodipodi:cy="612.36218"
       sodipodi:rx="46.5"
       sodipodi:ry="29"
       d="m 351,612.36218 c 0,16.01626 -20.81876,29 -46.5,29 -25.68124,0 -46.5,-12.98374 -46.5,-29 0,-16.01626 20.81876,-29 46.5,-29 25.68124,0 46.5,12.98374 46.5,29 z"
       transform="matrix(-0.29477842,0.87629665,-1.15066,-0.39014072,1333.3807,477.43727)" />
    <path
       sodipodi:type="arc"
       style="opacity:0.75925927;fill:url(#radialGradient3990);fill-opacity:1;stroke:none"
       id="path3982"
       sodipodi:cx="352"
       sodipodi:cy="501.86218"
       sodipodi:rx="10"
       sodipodi:ry="10.5"
       d="m 362,501.86218 c 0,5.79899 -4.47715,10.5 -10,10.5 -5.52285,0 -10,-4.70101 -10,-10.5 0,-5.79899 4.47715,-10.5 10,-10.5 5.52285,0 10,4.70101 10,10.5 z"
       transform="matrix(2.35,0,0,2.3809523,-481.7,-694.54778)" />
  </g>
  <g
     inkscape:groupmode="layer"
     id="layer2"
     inkscape:label="pennello"
     transform="translate(-174.55695,-383.0422)">
    <path
       style="opacity:0.44444442;fill:#000000;fill-opacity:1;stroke:none;filter:url(#filter4079)"
       d="m 629.74873,786.46306 c -70.55898,-26.31564 -70.73031,-25.88227 -70.73031,-25.88227 l -12.17463,15.67822 c 0,0 73.91805,27.885 78.91077,27.885 4.99272,0 6.9898,-13.89218 3.99417,-17.68095 z"
       id="path3993-2-7"
       sodipodi:nodetypes="cccsc"
       transform="matrix(1.0230351,0,0,0.96647559,-13.067697,24.728228)" />
    <path
       style="fill:#8f5902;stroke:#6a4202;stroke-width:10;stroke-linecap:butt;stroke-linejoin:miter;stroke-miterlimit:4;stroke-opacity:1;stroke-dasharray:none"
       d="M 471.00563,715.62264 C 319.83618,654.57923 297.07118,662.55683 297.02296,662.57612 l -2.99841,13.09372 c 0,7.18976 160.91477,61.15193 165.91212,52.3749 2.47263,-4.34278 14.06737,-8.85108 11.06896,-12.4221 z"
       id="path3993"
       sodipodi:nodetypes="cccsc" />
    <path
       style="fill:#8f5902;stroke:#6a4202;stroke-width:9.25179672;stroke-linecap:butt;stroke-linejoin:miter;stroke-miterlimit:4;stroke-opacity:1;stroke-dasharray:none"
       d="M 623.10896,769.33794 C 554.43446,746.19477 554.2677,746.5759 554.2677,746.5759 l -11.84947,13.78813 c 0,0 71.94386,24.52334 76.80324,24.52334 4.85937,0 6.80312,-12.21741 3.88749,-15.54943 z"
       id="path3993-2"
       sodipodi:nodetypes="cccsc" />
    <path
       style="fill:#babdb6;stroke:#777777;stroke-width:10.09500027;stroke-linecap:butt;stroke-linejoin:miter;stroke-miterlimit:4;stroke-opacity:1;stroke-dasharray:none"
       d="m 294.0448,660.42379 -35.91036,-14.57752 -5.52517,16.462 36.21379,12.04526 5.22174,-13.92974 z"
       id="path4017" />
    <path
       style="fill:#2e3436;stroke:#000000;stroke-width:10.54847908;stroke-linecap:butt;stroke-linejoin:miter;stroke-miterlimit:4;stroke-opacity:1;stroke-dasharray:none"
       d="m 252.71105,641.98713 -33.72877,-25.67777 -37.44627,3.49214 -1.70482,18.16608 30.70513,16.77793 36.30896,4.3843 5.86577,-17.14268 z"
       id="path4019" />
  </g>
</svg>
