<?xml version="1.0" encoding="UTF-8" standalone="no"?>
<!-- Created with Inkscape (http://www.inkscape.org/) -->

<svg
   xmlns:dc="http://purl.org/dc/elements/1.1/"
   xmlns:cc="http://creativecommons.org/ns#"
   xmlns:rdf="http://www.w3.org/1999/02/22-rdf-syntax-ns#"
   xmlns:svg="http://www.w3.org/2000/svg"
   xmlns="http://www.w3.org/2000/svg"
   xmlns:xlink="http://www.w3.org/1999/xlink"
   xmlns:sodipodi="http://sodipodi.sourceforge.net/DTD/sodipodi-0.dtd"
   xmlns:inkscape="http://www.inkscape.org/namespaces/inkscape"
   width="406.51001"
   height="406.51001"
   id="svg2"
   version="1.1"
   inkscape:version="0.47 r22583"
   sodipodi:docname="tag.svg"
   inkscape:export-filename="/home/paolo/Scrivania/tag.png"
   inkscape:export-xdpi="4.8230395"
   inkscape:export-ydpi="4.8230395">
  <defs
     id="defs4">
    <linearGradient
       inkscape:collect="always"
       id="linearGradient3741">
      <stop
         style="stop-color:#f6e555;stop-opacity:1;"
         offset="0"
         id="stop3743" />
      <stop
         style="stop-color:#f6e555;stop-opacity:0;"
         offset="1"
         id="stop3745" />
    </linearGradient>
    <linearGradient
       id="linearGradient3715">
      <stop
         style="stop-color:#ffffff;stop-opacity:1;"
         offset="0"
         id="stop3717" />
      <stop
         id="stop3749"
         offset="0.5"
         style="stop-color:#ffffff;stop-opacity:0.6;" />
      <stop
         style="stop-color:#ffffff;stop-opacity:0.20377358"
         offset="1"
         id="stop3719" />
    </linearGradient>
    <linearGradient
       id="linearGradient3676">
      <stop
         style="stop-color:#000000;stop-opacity:0"
         offset="0"
         id="stop3678" />
      <stop
         style="stop-color:#ffffff;stop-opacity:0;"
         offset="1"
         id="stop3680" />
    </linearGradient>
    <linearGradient
       id="linearGradient3664">
      <stop
         style="stop-color:#ffffff;stop-opacity:1;"
         offset="0"
         id="stop3666" />
      <stop
         style="stop-color:#ffffff;stop-opacity:1;"
         offset="1"
         id="stop3668" />
    </linearGradient>
    <inkscape:perspective
       sodipodi:type="inkscape:persp3d"
       inkscape:vp_x="0 : 526.18109 : 1"
       inkscape:vp_y="0 : 1000 : 0"
       inkscape:vp_z="744.09448 : 526.18109 : 1"
       inkscape:persp3d-origin="372.04724 : 350.78739 : 1"
       id="perspective10" />
    <inkscape:perspective
       id="perspective3606"
       inkscape:persp3d-origin="0.5 : 0.33333333 : 1"
       inkscape:vp_z="1 : 0.5 : 1"
       inkscape:vp_y="0 : 1000 : 0"
       inkscape:vp_x="0 : 0.5 : 1"
       sodipodi:type="inkscape:persp3d" />
    <linearGradient
       inkscape:collect="always"
       xlink:href="#linearGradient3715"
       id="linearGradient3721"
       x1="253.31688"
       y1="116.98831"
       x2="348.68555"
       y2="345.98911"
       gradientUnits="userSpaceOnUse" />
    <linearGradient
       inkscape:collect="always"
       xlink:href="#linearGradient3715"
       id="linearGradient3739"
       x1="310.74905"
       y1="284.13843"
       x2="278.57144"
       y2="218.89706"
       gradientUnits="userSpaceOnUse" />
    <linearGradient
       inkscape:collect="always"
       xlink:href="#linearGradient3741"
       id="linearGradient3747"
       x1="332.2825"
       y1="286.6499"
       x2="310.74905"
       y2="284.13843"
       gradientUnits="userSpaceOnUse" />
    <filter
       inkscape:collect="always"
       id="filter4182"
       x="-0.10158391"
       width="1.2031678"
       y="-0.11316727"
       height="1.2263345"
       color-interpolation-filters="sRGB">
      <feGaussianBlur
         inkscape:collect="always"
         stdDeviation="13.771451"
         id="feGaussianBlur4184" />
    </filter>
  </defs>
  <sodipodi:namedview
     id="base"
     pagecolor="#ffffff"
     bordercolor="#666666"
     borderopacity="1.0"
     inkscape:pageopacity="0.0"
     inkscape:pageshadow="2"
     inkscape:zoom="1.4"
     inkscape:cx="206.24799"
     inkscape:cy="194.68116"
     inkscape:document-units="px"
     inkscape:current-layer="layer1"
     showgrid="false"
     inkscape:window-width="1280"
     inkscape:window-height="949"
     inkscape:window-x="0"
     inkscape:window-y="24"
     inkscape:window-maximized="1" />
  <metadata
     id="metadata7">
    <rdf:RDF>
      <cc:Work
         rdf:about="">
        <dc:format>image/svg+xml</dc:format>
        <dc:type
           rdf:resource="http://purl.org/dc/dcmitype/StillImage" />
        <dc:title />
      </cc:Work>
    </rdf:RDF>
  </metadata>
  <g
     inkscape:label="Livello 1"
     inkscape:groupmode="layer"
     id="layer1"
     transform="translate(-169.904,-99.655341)">
    <path
       id="path4172"
       d="m 316.28572,173.53572 c -13.05963,0.18433 -25.78254,6.67149 -33.5,18.46875 l -2.71875,4.15625 c -16.84239,-8.49503 -37.60691,-3.20522 -48.1875,12.96875 l -15.25,23.3125 c -10.58059,16.17397 -7.12461,37.34647 7.40625,49.375 l -2.71875,4.15625 c -12.34794,18.87561 -7.09436,43.99582 11.78125,56.34375 l 178.21875,116.59375 c 18.87561,12.34793 44.02707,7.09436 56.375,-11.78125 l 61.46875,-93.96875 c 12.34794,-18.87561 7.09436,-43.99582 -11.78125,-56.34375 L 339.16072,180.22322 c -7.07835,-4.63047 -15.03922,-6.7981 -22.875,-6.6875 z m -34.84375,62.40625 c 14.20161,0 25.6875,11.51714 25.6875,25.71875 0,14.20161 -11.48589,25.6875 -25.6875,25.6875 -14.20161,0 -25.71875,-11.48589 -25.71875,-25.6875 0,-14.20161 11.51714,-25.71875 25.71875,-25.71875 z"
       style="opacity:0.41132076;fill:#000000;fill-opacity:1;stroke:#000000;stroke-width:15.04699993;stroke-linejoin:round;stroke-miterlimit:4;stroke-opacity:1;stroke-dasharray:none;stroke-dashoffset:0;filter:url(#filter4182)" />
    <path
       style="fill:#f8eb7c;fill-opacity:1;stroke:#cba700;stroke-width:15.04699993;stroke-linejoin:round;stroke-miterlimit:4;stroke-opacity:1;stroke-dasharray:none;stroke-dashoffset:0"
       d="m 313.42858,146.39286 c -13.05963,0.18433 -25.78254,6.67149 -33.5,18.46875 l -2.71875,4.15625 c -16.84239,-8.49503 -37.60691,-3.20522 -48.1875,12.96875 l -15.25,23.3125 c -10.58059,16.17397 -7.12461,37.34647 7.40625,49.375 l -2.71875,4.15625 c -12.34794,18.87561 -7.09436,43.99582 11.78125,56.34375 l 178.21875,116.59375 c 18.87561,12.34793 44.02707,7.09436 56.375,-11.78125 l 61.46875,-93.96875 c 12.34794,-18.87561 7.09436,-43.99582 -11.78125,-56.34375 L 336.30358,153.08036 c -7.07835,-4.63047 -15.03922,-6.7981 -22.875,-6.6875 z m -34.84375,62.40625 c 14.20161,0 25.6875,11.51714 25.6875,25.71875 0,14.20161 -11.48589,25.6875 -25.6875,25.6875 -14.20161,0 -25.71875,-11.48589 -25.71875,-25.6875 0,-14.20161 11.51714,-25.71875 25.71875,-25.71875 z"
       id="rect3590" />
    <path
       style="opacity:0.81132071;fill:none;stroke:url(#linearGradient3721);stroke-width:15.04699993;stroke-linejoin:round;stroke-miterlimit:4;stroke-opacity:1;stroke-dasharray:none;stroke-dashoffset:0"
       d="m 312.78125,160.40625 c -13.8021,-0.31642 -21.25237,13.37673 -30.5,21.15625 -10.68857,3.30594 -22.24078,-7.41576 -32.34375,-0.0937 -13.10817,8.59743 -19.51136,23.61509 -27.03125,36.625 -3.61727,9.63545 0.35524,20.61191 8,27.03125 4.8109,7.15316 3.71683,17.00658 -2.0625,23.21875 -6.86461,11.68384 -2.49288,27.51062 8.6875,34.84375 12.47153,9.77598 27.08933,16.20012 39.58022,25.78976 48.8499,31.87593 97.11335,65.07034 147.35728,94.86649 15.64603,3.54055 30.45303,-8.5998 35.69061,-22.65776 19.49296,-31.20844 42.75429,-60.4357 58.65314,-93.77974 1.97351,-15.3486 -10.50752,-28.2647 -23.83723,-33.57811 C 437.10714,236.23338 380.11673,196.92987 320.9375,161.2813 c -2.65518,-0.70065 -5.40887,-1.02446 -8.15625,-0.875 z"
       id="path3684" />
    <path
       sodipodi:type="arc"
       style="opacity:0.81132071;fill:url(#linearGradient3747);fill-opacity:1;stroke:url(#linearGradient3739);stroke-width:15.04699993;stroke-linejoin:round;stroke-miterlimit:4;stroke-opacity:1;stroke-dasharray:none;stroke-dashoffset:0"
       id="path3731"
       sodipodi:cx="278.57144"
       sodipodi:cy="235.21933"
       sodipodi:rx="41.42857"
       sodipodi:ry="41.42857"
       d="m 320.00001,235.21933 c 0,22.88037 -18.5482,41.42857 -41.42857,41.42857 -22.88037,0 -41.42857,-18.5482 -41.42857,-41.42857 0,-22.88037 18.5482,-41.42857 41.42857,-41.42857 22.88037,0 41.42857,18.5482 41.42857,41.42857 z"
       transform="matrix(0.97745172,0,0,0.98607239,6.638457,2.5617589)" />
    <path
       style="fill:none;stroke:#c4a000;stroke-width:15;stroke-linecap:butt;stroke-linejoin:miter;stroke-miterlimit:4;stroke-opacity:1;stroke-dasharray:none"
       d="m 383.57143,248.07646 c -52.85714,76.42858 -52.85714,76.42858 -52.85714,76.42858"
       id="path4223" />
    <path
       id="path4235"
       d="m 421.42857,274.50503 c -52.85714,76.42858 -52.85714,76.42858 -52.85714,76.42858"
       style="fill:none;stroke:#c4a000;stroke-width:15;stroke-linecap:butt;stroke-linejoin:miter;stroke-miterlimit:4;stroke-opacity:1;stroke-dasharray:none" />
    <path
       style="fill:none;stroke:#c4a000;stroke-width:15;stroke-linecap:butt;stroke-linejoin:miter;stroke-miterlimit:4;stroke-opacity:1;stroke-dasharray:none"
       d="m 460,300.93361 c -52.85714,76.42858 -52.85714,76.42858 -52.85714,76.42858"
       id="path4237" />
  </g>
</svg>
