<?xml version="1.0" encoding="UTF-8" standalone="no"?>
<!-- Created with Inkscape (http://www.inkscape.org/) -->

<svg
   xmlns:dc="http://purl.org/dc/elements/1.1/"
   xmlns:cc="http://creativecommons.org/ns#"
   xmlns:rdf="http://www.w3.org/1999/02/22-rdf-syntax-ns#"
   xmlns:svg="http://www.w3.org/2000/svg"
   xmlns="http://www.w3.org/2000/svg"
   xmlns:sodipodi="http://sodipodi.sourceforge.net/DTD/sodipodi-0.dtd"
   xmlns:inkscape="http://www.inkscape.org/namespaces/inkscape"
   width="16"
   height="16"
   id="svg2"
   version="1.1"
   inkscape:version="0.48.4 r9939"
   sodipodi:docname="emblem-flag-blue.svg">
  <defs
     id="defs4">
    <linearGradient
       id="linearGradient3946">
      <stop
         id="stop3948"
         offset="0"
         style="stop-color:#000000;stop-opacity:0.74698794;" />
      <stop
         id="stop3950"
         offset="1"
         style="stop-color:#000000;stop-opacity:0.02409638;" />
    </linearGradient>
    <linearGradient
       id="linearGradient3830-9">
      <stop
         style="stop-color:#000000;stop-opacity:0.74698794;"
         offset="0"
         id="stop3832-7" />
      <stop
         style="stop-color:#000000;stop-opacity:0.02409638;"
         offset="1"
         id="stop3834-5" />
    </linearGradient>
    <linearGradient
       id="linearGradient3984">
      <stop
         style="stop-color:#f4deba;stop-opacity:1;"
         offset="0"
         id="stop3986" />
      <stop
         style="stop-color:#de9625;stop-opacity:0;"
         offset="1"
         id="stop3988" />
    </linearGradient>
  </defs>
  <sodipodi:namedview
     id="base"
     pagecolor="#555753"
     bordercolor="#666666"
     borderopacity="1.0"
     inkscape:pageopacity="1"
     inkscape:pageshadow="2"
     inkscape:zoom="11.313708"
     inkscape:cx="16.815901"
     inkscape:cy="8.6585449"
     inkscape:document-units="px"
     inkscape:current-layer="layer1"
     showgrid="true"
     inkscape:snap-grids="true"
     inkscape:window-width="1920"
     inkscape:window-height="1134"
     inkscape:window-x="0"
     inkscape:window-y="27"
     inkscape:window-maximized="1"
     showborder="true"
     fit-margin-top="0"
     fit-margin-right="0"
     fit-margin-left="0"
     fit-margin-bottom="0"
     showguides="true"
     inkscape:guide-bbox="true">
    <inkscape:grid
       type="xygrid"
       id="grid7044"
       empspacing="8"
       visible="true"
       enabled="true"
       snapvisiblegridlinesonly="true"
       originx="-31.97559px"
       originy="-816.00002px" />
  </sodipodi:namedview>
  <metadata
     id="metadata7">
    <rdf:RDF>
      <cc:Work
         rdf:about="">
        <dc:format>image/svg+xml</dc:format>
        <dc:type
           rdf:resource="http://purl.org/dc/dcmitype/StillImage" />
        <dc:title />
      </cc:Work>
    </rdf:RDF>
  </metadata>
  <g
     inkscape:label="Livello 1"
     inkscape:groupmode="layer"
     id="layer1"
     transform="translate(-31.97559,-220.36218)">
    <path
       sodipodi:type="inkscape:offset"
       inkscape:radius="0.72782844"
       inkscape:original="M 3.9375 0.96875 A 1.0001 1.0001 0 0 0 3.0625 2 L 3.0625 14 A 1.0001 1.0001 0 1 0 5.0625 14 L 5.0625 9.5 L 12.03125 6 L 12.03125 5 L 5.0625 2.375 L 5.0625 2 A 1.0001 1.0001 0 0 0 3.9375 0.96875 z "
       style="font-size:medium;font-style:normal;font-variant:normal;font-weight:normal;font-stretch:normal;text-indent:0;text-align:start;text-decoration:none;line-height:normal;letter-spacing:normal;word-spacing:normal;text-transform:none;direction:ltr;block-progression:tb;writing-mode:lr-tb;text-anchor:start;baseline-shift:baseline;color:#000000;fill:#ffffff;fill-opacity:1;stroke:none;stroke-width:2;marker:none;visibility:visible;display:inline;overflow:visible;enable-background:accumulate;font-family:Sans;-inkscape-font-specification:Sans"
       id="path3782"
       d="m 4.03125,0.21875 c -0.00492,8.612e-5 -0.08884,0.0308971 -0.09375,0.03125 -0.00491,3.5288e-4 -0.088866,-6.186e-4 -0.09375,0 -0.00418,5.2366e-4 -0.05835,-7.1698e-4 -0.0625,0 -0.00415,7.1698e-4 -0.089637,0.0303412 -0.09375,0.03125 -0.00411,9.0875e-4 -0.058434,-0.001099 -0.0625,0 -0.00407,0.001099 -0.089739,0.029964 -0.09375,0.03125 -0.00401,0.001286 -0.058553,0.0297793 -0.0625,0.03125 -0.00395,0.001471 -0.089876,0.0295978 -0.09375,0.03125 -0.00387,0.001652 -0.058706,0.0294198 -0.0625,0.03125 -0.00379,0.00183 -0.058795,0.0292458 -0.0625,0.03125 -0.0037,0.002004 -0.090142,0.0290761 -0.09375,0.03125 -0.00361,0.002174 -0.058997,0.0601611 -0.0625,0.0625 -0.0035,0.002339 -0.059109,0.0287511 -0.0625,0.03125 -0.00339,0.002499 -0.059229,0.0598465 -0.0625,0.0625 -0.00327,0.002653 -0.059356,0.0284477 -0.0625,0.03125 -0.00314,0.002802 -0.059489,0.0595548 -0.0625,0.0625 -0.00301,0.002945 -0.028379,0.0594183 -0.03125,0.0625 -0.00287,0.003082 -0.059775,0.0592884 -0.0625,0.0625 -0.00272,0.003212 -0.059927,0.0591654 -0.0625,0.0625 -0.00257,0.003335 -0.028834,0.0590497 -0.03125,0.0625 -0.00242,0.00345 -0.060247,0.0589413 -0.0625,0.0625 -0.00225,0.00356 -0.029165,0.058841 -0.03125,0.0625 -0.00209,0.00366 -0.029337,0.089998 -0.03125,0.09375 -0.00191,0.00375 -0.029513,0.058663 -0.03125,0.0625 -0.00174,0.00384 -0.029693,0.058587 -0.03125,0.0625 -0.00156,0.00391 -0.029876,0.089769 -0.03125,0.09375 -0.00137,0.00398 -0.030062,0.058459 -0.03125,0.0625 -0.00119,0.00404 -0.030251,0.089658 -0.03125,0.09375 -9.993e-4,0.00409 8.084e-4,0.058366 0,0.0625 -8.084e-4,0.00413 -0.030634,0.089583 -0.03125,0.09375 -6.157e-4,0.00417 4.218e-4,0.058309 0,0.0625 -4.218e-4,0.00419 2.269e-4,0.089544 0,0.09375 -2.269e-4,0.00421 3.16e-5,0.058288 0,0.0625 -2.1e-5,0.00281 -3.803e-4,0.039681 0,0.0625 1.901e-4,0.01141 -5.46e-5,0.029847 0,0.03125 l 0,11.96875 c -6.36e-5,0.0045 -1.59e-4,0.05801 0,0.0625 1.59e-4,0.0045 -3.813e-4,0.08927 0,0.09375 3.813e-4,0.0045 -6.025e-4,0.08929 0,0.09375 6.025e-4,0.0045 0.030428,0.08933 0.03125,0.09375 8.223e-4,0.0044 -0.00104,0.05813 0,0.0625 0.00104,0.0044 0.029995,0.08943 0.03125,0.09375 0.00126,0.0043 0.029783,0.0895 0.03125,0.09375 0.00147,0.0042 0.029574,0.05833 0.03125,0.0625 0.00168,0.0042 0.02937,0.08967 0.03125,0.09375 0.00188,0.0041 0.02917,0.05851 0.03125,0.0625 0.00208,0.004 0.028975,0.05862 0.03125,0.0625 0.00228,0.0039 0.060036,0.08999 0.0625,0.09375 0.00246,0.0038 0.028603,0.05887 0.03125,0.0625 0.00265,0.0036 0.059676,0.059 0.0625,0.0625 0.00282,0.0035 0.059506,0.05915 0.0625,0.0625 0.00299,0.0034 0.059344,0.0593 0.0625,0.0625 0.00316,0.0032 0.059189,0.05946 0.0625,0.0625 0.00331,0.003 0.059043,0.05963 0.0625,0.0625 0.00346,0.0029 0.058905,0.0598 0.0625,0.0625 0.0036,0.0027 0.058776,0.02873 0.0625,0.03125 0.00372,0.0025 0.058656,0.06017 0.0625,0.0625 0.00384,0.0023 0.089795,0.02911 0.09375,0.03125 0.00395,0.0021 0.058444,0.02931 0.0625,0.03125 0.00406,0.0019 0.089603,0.02951 0.09375,0.03125 0.00415,0.0017 0.058272,0.02972 0.0625,0.03125 0.00423,0.0015 0.089452,0.02993 0.09375,0.03125 0.0043,0.0013 0.058142,0.03015 0.0625,0.03125 0.00436,0.0011 0.089343,0.03036 0.09375,0.03125 0.00441,8.85e-4 0.089304,-6.65e-4 0.09375,0 0.00445,6.65e-4 0.089277,-4.45e-4 0.09375,0 0.00447,4.45e-4 0.05801,0.03103 0.0625,0.03125 0.00449,2.23e-4 0.089255,0 0.09375,0 0.0045,0 0.08926,2.23e-4 0.09375,0 0.00449,-2.23e-4 0.058027,-0.03081 0.0625,-0.03125 0.00447,-4.45e-4 0.089304,6.65e-4 0.09375,0 0.00445,-6.65e-4 0.089343,8.85e-4 0.09375,0 0.00441,-8.85e-4 0.089392,-0.03015 0.09375,-0.03125 0.00436,-0.0011 0.058202,-0.02993 0.0625,-0.03125 0.0043,-0.0013 0.089522,-0.02972 0.09375,-0.03125 0.00423,-0.0015 0.058353,-0.02951 0.0625,-0.03125 0.00415,-0.0017 0.089694,-0.02931 0.09375,-0.03125 0.00406,-0.0019 0.058545,-0.02911 0.0625,-0.03125 0.00396,-0.0021 0.089906,-0.02892 0.09375,-0.03125 0.00384,-0.0023 0.058776,-0.05998 0.0625,-0.0625 0.00372,-0.0025 0.058905,-0.02855 0.0625,-0.03125 0.0036,-0.0027 0.059043,-0.05963 0.0625,-0.0625 0.00346,-0.0029 0.059189,-0.05946 0.0625,-0.0625 0.00331,-0.003 0.059344,-0.0593 0.0625,-0.0625 0.00316,-0.0032 0.059506,-0.05915 0.0625,-0.0625 0.00299,-0.0034 0.059676,-0.059 0.0625,-0.0625 0.00282,-0.0035 0.059853,-0.05887 0.0625,-0.0625 0.00265,-0.0036 0.028786,-0.05874 0.03125,-0.0625 0.00246,-0.0038 0.060225,-0.08987 0.0625,-0.09375 0.00228,-0.0039 0.02917,-0.05851 0.03125,-0.0625 0.00208,-0.004 0.029369,-0.05842 0.03125,-0.0625 0.00188,-0.0041 0.029574,-0.08958 0.03125,-0.09375 0.00168,-0.0042 0.029782,-0.05825 0.03125,-0.0625 0.00147,-0.0042 0.029995,-0.08943 0.03125,-0.09375 0.00126,-0.0043 0.03021,-0.08938 0.03125,-0.09375 0.00104,-0.0044 -8.223e-4,-0.05808 0,-0.0625 8.223e-4,-0.0044 0.030647,-0.08929 0.03125,-0.09375 6.025e-4,-0.0045 -3.813e-4,-0.08927 0,-0.09375 3.813e-4,-0.0045 -1.59e-4,-0.08926 0,-0.09375 1.59e-4,-0.0045 6.36e-5,-0.058 0,-0.0625 l 0,-4.0625 6.5625,-3.28125 A 0.72790123,0.72790123 0 0 0 12.75,6 l 0,-1 A 0.72790123,0.72790123 0 0 0 12.28125,4.3125 l -6.5,-2.4375 0,-0.03125 c -3.414e-4,-0.00491 6.072e-4,-0.088864 0,-0.09375 C 5.7806428,1.7451144 5.7508712,1.6610955 5.75,1.65625 5.7491288,1.6514045 5.7511327,1.5672911 5.75,1.5625 5.7488673,1.5577089 5.7201408,1.4734727 5.71875,1.46875 5.7173592,1.4640273 5.6891448,1.3796403 5.6875,1.375 5.6858552,1.3703597 5.658144,1.2857943 5.65625,1.28125 5.654356,1.2767057 5.6271376,1.2231849 5.625,1.21875 5.6228624,1.2143151 5.5648749,1.1293125 5.5625,1.125 c -0.00237,-0.00431 -0.028645,-0.089573 -0.03125,-0.09375 -0.00261,-0.00418 -0.059672,-0.05847 -0.0625,-0.0625 -0.00283,-0.00403 -0.059458,-0.0586292 -0.0625,-0.0625 C 5.4032078,0.90237924 5.3782476,0.81620012 5.375,0.8125 5.3717524,0.80879988 5.3159434,0.7535186 5.3125,0.75 5.3090566,0.7464814 5.2223791,0.69082672 5.21875,0.6875 5.2151209,0.68417328 5.1600542,0.62812506 5.15625,0.625 5.1524458,0.62187494 5.097718,0.5654142 5.09375,0.5625 5.089782,0.5595858 5.0041202,0.50269477 5,0.5 4.9958798,0.49730523 4.9417602,0.47121741 4.9375,0.46875 4.9332398,0.46628259 4.8481378,0.4084828 4.84375,0.40625 4.8393622,0.4040172 4.7545024,0.37699161 4.75,0.375 4.7454976,0.37300839 4.6921037,0.34549457 4.6875,0.34375 4.6828963,0.34200543 4.5984415,0.31399239 4.59375,0.3125 4.5890585,0.31100761 4.5047656,0.28248583 4.5,0.28125 c -0.00477,-0.001236 -0.088924,9.7563e-4 -0.09375,0 C 4.4014244,0.28027437 4.3173713,0.25071255 4.3125,0.25 c -0.00487,-7.1255e-4 -0.088847,4.4739e-4 -0.09375,0 -0.0049,-4.4739e-4 -0.08883,-0.0310691 -0.09375,-0.03125 -0.00492,-1.809e-4 -0.088828,-8.612e-5 -0.09375,0 z"
       transform="translate(31.97559,220.36218)" />
    <path
       style="font-size:medium;font-style:normal;font-variant:normal;font-weight:normal;font-stretch:normal;text-indent:0;text-align:start;text-decoration:none;line-height:normal;letter-spacing:normal;word-spacing:normal;text-transform:none;direction:ltr;block-progression:tb;writing-mode:lr-tb;text-anchor:start;baseline-shift:baseline;color:#000000;fill:#204a87;fill-opacity:1;stroke:none;stroke-width:2;marker:none;visibility:visible;display:inline;overflow:visible;enable-background:accumulate;font-family:Sans;-inkscape-font-specification:Sans"
       d="M 3.9375 0.96875 A 1.0001 1.0001 0 0 0 3.0625 2 L 3.0625 14 A 1.0001 1.0001 0 1 0 5.0625 14 L 5.0625 9.5 L 12.03125 6 L 12.03125 5 L 5.0625 2.375 L 5.0625 2 A 1.0001 1.0001 0 0 0 3.9375 0.96875 z "
       transform="translate(31.97559,220.36218)"
       id="path3763" />
  </g>
</svg>
