<?xml version="1.0" encoding="UTF-8" standalone="no"?>
<!-- Created with Inkscape (http://www.inkscape.org/) -->

<svg
   xmlns:dc="http://purl.org/dc/elements/1.1/"
   xmlns:cc="http://creativecommons.org/ns#"
   xmlns:rdf="http://www.w3.org/1999/02/22-rdf-syntax-ns#"
   xmlns:svg="http://www.w3.org/2000/svg"
   xmlns="http://www.w3.org/2000/svg"
   xmlns:sodipodi="http://sodipodi.sourceforge.net/DTD/sodipodi-0.dtd"
   xmlns:inkscape="http://www.inkscape.org/namespaces/inkscape"
   width="16"
   height="16"
   id="svg2"
   version="1.1"
   inkscape:version="0.92.4 5da689c313, 2019-01-14"
   sodipodi:docname="lock-symbolic.svg">
  <defs
     id="defs4">
    <linearGradient
       id="linearGradient3946">
      <stop
         id="stop3948"
         offset="0"
         style="stop-color:#000000;stop-opacity:0.74698794;" />
      <stop
         id="stop3950"
         offset="1"
         style="stop-color:#000000;stop-opacity:0.02409638;" />
    </linearGradient>
    <linearGradient
       id="linearGradient3830-9">
      <stop
         style="stop-color:#000000;stop-opacity:0.74698794;"
         offset="0"
         id="stop3832-7" />
      <stop
         style="stop-color:#000000;stop-opacity:0.02409638;"
         offset="1"
         id="stop3834-5" />
    </linearGradient>
    <linearGradient
       id="linearGradient3984">
      <stop
         style="stop-color:#f4deba;stop-opacity:1;"
         offset="0"
         id="stop3986" />
      <stop
         style="stop-color:#de9625;stop-opacity:0;"
         offset="1"
         id="stop3988" />
    </linearGradient>
  </defs>
  <sodipodi:namedview
     id="base"
     pagecolor="#555753"
     bordercolor="#666666"
     borderopacity="1.0"
     inkscape:pageopacity="1"
     inkscape:pageshadow="2"
     inkscape:zoom="16"
     inkscape:cx="-10.159501"
     inkscape:cy="9.886072"
     inkscape:document-units="px"
     inkscape:current-layer="layer1"
     showgrid="true"
     inkscape:snap-grids="true"
     inkscape:window-width="1920"
     inkscape:window-height="1136"
     inkscape:window-x="0"
     inkscape:window-y="27"
     inkscape:window-maximized="1"
     showborder="true"
     fit-margin-top="0"
     fit-margin-right="0"
     fit-margin-left="0"
     fit-margin-bottom="0"
     showguides="true"
     inkscape:guide-bbox="true">
    <inkscape:grid
       type="xygrid"
       id="grid7044"
       empspacing="8"
       visible="true"
       enabled="true"
       snapvisiblegridlinesonly="true"
       originx="-31.97559"
       originy="-816.00002"
       spacingx="1"
       spacingy="1" />
  </sodipodi:namedview>
  <metadata
     id="metadata7">
    <rdf:RDF>
      <cc:Work
         rdf:about="">
        <dc:format>image/svg+xml</dc:format>
        <dc:type
           rdf:resource="http://purl.org/dc/dcmitype/StillImage" />
        <dc:title></dc:title>
      </cc:Work>
    </rdf:RDF>
  </metadata>
  <g
     inkscape:label="Livello 1"
     inkscape:groupmode="layer"
     id="layer1"
     transform="translate(-31.97559,-220.36218)">
    <path
       inkscape:connector-curvature="0"
       style="fill:#bebebe;fill-opacity:1;stroke:none;stroke-width:0.99999994px;stroke-linecap:butt;stroke-linejoin:miter;stroke-opacity:1"
       d="m 40.134177,220.50804 c -2.078913,0.0172 -4.245658,1.39119 -4.276622,4.07304 l -0.05386,3.19507 c -0.213748,0.0167 -0.428071,0.0338 -0.641662,0.0503 -0.03177,0.66003 0.02447,4.54379 0.01329,7.67749 l 1.152704,0.71259 c 2.677302,-0.13582 5.069075,-0.099 8.470968,-0.96039 l -0.05429,-7.6762 c -0.109652,0.0177 -0.219435,0.0349 -0.329101,0.0527 0.105001,-0.0179 0.210304,-0.0348 0.315212,-0.0529 l -0.712168,-0.21363 0.01299,-3.64408 c -0.110968,-1.38744 -0.900103,-2.31177 -1.943754,-2.78369 -0.587896,-0.29305 -1.265862,-0.4361 -1.953827,-0.43034 z m 0.269619,1.49854 c 0.608196,-0.003 1.18865,0.19618 1.601085,0.61357 0.195717,0.20975 0.349857,0.47198 0.447318,0.78734 -0.0071,-0.008 -0.01403,-0.0133 -0.0213,-0.0207 0.01988,0.0454 0.03796,0.0929 0.05503,0.14118 0.04873,0.19321 0.07771,0.40436 0.08216,0.6352 l 0.03658,3.02563 c -1.738803,0.17162 -3.454282,0.31988 -5.159171,0.45759 l 0.04707,-2.71794 c 0.03589,-1.87985 1.542627,-2.91379 2.911231,-2.92183 z"
       id="path3927"
       sodipodi:nodetypes="sccccccccccccssccccccccs" />
  </g>
</svg>
