<?xml version="1.0" encoding="UTF-8" standalone="no"?>
<!-- Created with Inkscape (http://www.inkscape.org/) -->

<svg
   xmlns:dc="http://purl.org/dc/elements/1.1/"
   xmlns:cc="http://creativecommons.org/ns#"
   xmlns:rdf="http://www.w3.org/1999/02/22-rdf-syntax-ns#"
   xmlns:svg="http://www.w3.org/2000/svg"
   xmlns="http://www.w3.org/2000/svg"
   xmlns:sodipodi="http://sodipodi.sourceforge.net/DTD/sodipodi-0.dtd"
   xmlns:inkscape="http://www.inkscape.org/namespaces/inkscape"
   width="16"
   height="16"
   id="svg2"
   version="1.1"
   inkscape:version="0.48.4 r9939"
   sodipodi:docname="view-zoom-fit-width-symbolic.svg">
  <defs
     id="defs4">
    <linearGradient
       id="linearGradient3946">
      <stop
         id="stop3948"
         offset="0"
         style="stop-color:#000000;stop-opacity:0.74698794;" />
      <stop
         id="stop3950"
         offset="1"
         style="stop-color:#000000;stop-opacity:0.02409638;" />
    </linearGradient>
    <linearGradient
       id="linearGradient3830-9">
      <stop
         style="stop-color:#000000;stop-opacity:0.74698794;"
         offset="0"
         id="stop3832-7" />
      <stop
         style="stop-color:#000000;stop-opacity:0.02409638;"
         offset="1"
         id="stop3834-5" />
    </linearGradient>
    <linearGradient
       id="linearGradient3984">
      <stop
         style="stop-color:#f4deba;stop-opacity:1;"
         offset="0"
         id="stop3986" />
      <stop
         style="stop-color:#de9625;stop-opacity:0;"
         offset="1"
         id="stop3988" />
    </linearGradient>
  </defs>
  <sodipodi:namedview
     id="base"
     pagecolor="#555753"
     bordercolor="#666666"
     borderopacity="1.0"
     inkscape:pageopacity="1"
     inkscape:pageshadow="2"
     inkscape:zoom="16"
     inkscape:cx="-4.8221853"
     inkscape:cy="10.011072"
     inkscape:document-units="px"
     inkscape:current-layer="layer1"
     showgrid="true"
     inkscape:snap-grids="true"
     inkscape:window-width="1920"
     inkscape:window-height="1134"
     inkscape:window-x="0"
     inkscape:window-y="27"
     inkscape:window-maximized="1"
     showborder="true"
     fit-margin-top="0"
     fit-margin-right="0"
     fit-margin-left="0"
     fit-margin-bottom="0"
     showguides="true"
     inkscape:guide-bbox="true">
    <inkscape:grid
       type="xygrid"
       id="grid7044"
       empspacing="8"
       visible="true"
       enabled="true"
       snapvisiblegridlinesonly="true"
       originx="-31.97559px"
       originy="-816.00002px" />
  </sodipodi:namedview>
  <metadata
     id="metadata7">
    <rdf:RDF>
      <cc:Work
         rdf:about="">
        <dc:format>image/svg+xml</dc:format>
        <dc:type
           rdf:resource="http://purl.org/dc/dcmitype/StillImage" />
        <dc:title />
      </cc:Work>
    </rdf:RDF>
  </metadata>
  <g
     inkscape:label="Livello 1"
     inkscape:groupmode="layer"
     id="layer1"
     transform="translate(-31.97559,-220.36218)">
    <path
       style="fill:#bebebe;fill-opacity:1;stroke:none"
       d="m 10.893072,221.30212 0,14 14,0 0,-14 -14,0 z m 2,2 2,0 2,0 0,2 -2,0 0,6 2,0 0,2 -2,0 -2,0 0,-10 z m 6,0 2,0 2,0 0,10 -2,0 -2,0 0,-2 2,0 0,-6 -2,0 0,-2 z"
       id="rect4385"
       inkscape:connector-curvature="0" />
    <path
       style="fill:#bebebe;fill-opacity:1;stroke:none"
       d="M 1.03125 1 L 1.03125 15 L 15.03125 15 L 15.03125 1 L 1.03125 1 z M 5.4375 5.03125 L 6.4375 5.03125 L 6.4375 6.03125 C 6.43754 6.28846 6.30812 6.55974 6.125 6.75 L 4.84375 8.03125 L 6.125 9.3125 C 6.30788 9.50301 6.4375 9.77405 6.4375 10.03125 L 6.4375 11.03125 L 5.4375 11.03125 C 5.12771 11.03125 4.88543 10.94115 4.6875 10.75 L 2.03125 8.03125 L 4.6875 5.3125 C 4.88538 5.12118 5.1277 5.03125 5.4375 5.03125 z M 9.59375 5.03125 L 10.59375 5.03125 C 10.90355 5.03125 11.14587 5.12118 11.34375 5.3125 L 14 8.03125 L 11.34375 10.75 C 11.14582 10.94115 10.90354 11.03125 10.59375 11.03125 L 9.59375 11.03125 L 9.59375 10.03125 C 9.59375 9.77405 9.72337 9.50301 9.90625 9.3125 L 11.1875 8.03125 L 9.90625 6.75 C 9.72313 6.55974 9.59371 6.28846 9.59375 6.03125 L 9.59375 5.03125 z "
       transform="translate(31.97559,220.36218)"
       id="rect3002" />
  </g>
</svg>
